<svg width="52" height="51" viewBox="0 0 52 51" fill="none" xmlns="http://www.w3.org/2000/svg">
<path d="M25.875 8.5127C25.0664 8.5127 24.3701 8.19076 23.7861 7.54688C23.2171 6.90299 22.9326 6.10938 22.9326 5.16602C22.9326 4.16276 23.0898 3.31673 23.4043 2.62793C23.7337 1.92415 24.168 1.24284 24.707 0.583984C25.0664 0.194661 25.4707 0.00748698 25.9199 0.0224609C26.3691 0.0374349 26.7734 0.269531 27.1328 0.71875C27.6719 1.34766 28.0837 2.00651 28.3682 2.69531C28.6676 3.38411 28.8174 4.20768 28.8174 5.16602C28.8174 6.10938 28.5329 6.90299 27.9639 7.54688C27.3949 8.19076 26.6986 8.5127 25.875 8.5127ZM24.5947 18.8672V6.10938H27.0879V18.8672H24.5947ZM11.208 25.8076V24.2354C11.208 22.0192 11.777 20.3496 12.915 19.2266C14.068 18.0885 15.7676 17.5195 18.0137 17.5195H33.7363C35.9824 17.5195 37.6745 18.0885 38.8125 19.2266C39.9655 20.3496 40.542 22.0192 40.542 24.2354V25.8076H11.208ZM3.54883 49.3242V35.5781C3.54883 33.362 4.11784 31.6924 5.25586 30.5693C6.40885 29.4313 8.1084 28.8623 10.3545 28.8623H41.3955C43.6416 28.8623 45.3337 29.4313 46.4717 30.5693C47.6097 31.6924 48.1787 33.362 48.1787 35.5781V49.3242H3.54883ZM25.8525 39.8457C26.4066 39.8457 26.9307 39.9805 27.4248 40.25C27.9339 40.5046 28.4505 40.804 28.9746 41.1484C29.5137 41.4928 30.0977 41.7923 30.7266 42.0469C31.3555 42.3164 32.0742 42.4512 32.8828 42.4512C33.6465 42.4512 34.3278 42.3164 34.9268 42.0469C35.5257 41.7923 36.0723 41.4928 36.5664 41.1484C37.0755 40.804 37.5622 40.5046 38.0264 40.25C38.5055 39.9805 39.0072 39.8457 39.5312 39.8457C40.0553 39.8457 40.557 39.9805 41.0361 40.25C41.5153 40.5046 42.0394 40.804 42.6084 41.1484C43.1774 41.4928 43.8363 41.7923 44.585 42.0469C45.3337 42.3164 46.2321 42.4512 47.2803 42.4512H48.1787V39.4863H47.2803C46.4867 39.4863 45.7754 39.359 45.1465 39.1045C44.5176 38.835 43.9186 38.528 43.3496 38.1836C42.7806 37.8392 42.1891 37.5397 41.5752 37.2852C40.9613 37.0156 40.2799 36.8809 39.5312 36.8809C38.7676 36.8809 38.1012 37.0156 37.5322 37.2852C36.9782 37.5397 36.4616 37.8392 35.9824 38.1836C35.5033 38.528 35.0166 38.835 34.5225 39.1045C34.0433 39.359 33.4967 39.4863 32.8828 39.4863C32.1641 39.4863 31.5277 39.359 30.9736 39.1045C30.4346 38.835 29.918 38.528 29.4238 38.1836C28.9297 37.8392 28.3981 37.5397 27.8291 37.2852C27.2751 37.0156 26.6162 36.8809 25.8525 36.8809C25.0889 36.8809 24.4225 37.0156 23.8535 37.2852C23.2995 37.5397 22.7754 37.8392 22.2812 38.1836C21.7871 38.528 21.2705 38.835 20.7314 39.1045C20.1924 39.359 19.5635 39.4863 18.8447 39.4863C18.2308 39.4863 17.6768 39.359 17.1826 39.1045C16.6885 38.835 16.2018 38.528 15.7227 38.1836C15.2435 37.8392 14.7194 37.5397 14.1504 37.2852C13.5964 37.0156 12.945 36.8809 12.1963 36.8809C11.4326 36.8809 10.7438 37.0156 10.1299 37.2852C9.51595 37.5397 8.92448 37.8392 8.35547 38.1836C7.78646 38.528 7.18001 38.835 6.53613 39.1045C5.90723 39.359 5.19596 39.4863 4.40234 39.4863H3.54883V42.4512H4.40234C5.45052 42.4512 6.34896 42.3164 7.09766 42.0469C7.86133 41.7923 8.52018 41.4928 9.07422 41.1484C9.64323 40.804 10.1748 40.5046 10.6689 40.25C11.1631 39.9805 11.6722 39.8457 12.1963 39.8457C12.7204 39.8457 13.2145 39.9805 13.6787 40.25C14.1429 40.5046 14.6221 40.804 15.1162 41.1484C15.6253 41.4928 16.1794 41.7923 16.7783 42.0469C17.3773 42.3164 18.0661 42.4512 18.8447 42.4512C19.6533 42.4512 20.3646 42.3164 20.9785 42.0469C21.6074 41.7923 22.1839 41.4928 22.708 41.1484C23.2471 40.804 23.7637 40.5046 24.2578 40.25C24.7669 39.9805 25.2985 39.8457 25.8525 39.8457ZM1.79688 50.8965C1.30273 50.8965 0.875977 50.7168 0.516602 50.3574C0.172201 49.998 0 49.5713 0 49.0771C0 48.583 0.172201 48.1562 0.516602 47.7969C0.875977 47.4525 1.30273 47.2803 1.79688 47.2803H49.9307C50.4248 47.2803 50.8441 47.4525 51.1885 47.7969C51.5479 48.1562 51.7275 48.583 51.7275 49.0771C51.7275 49.5713 51.5479 49.998 51.1885 50.3574C50.8441 50.7168 50.4248 50.8965 49.9307 50.8965H1.79688Z" fill="url(#paint0_linear_397_2049)"/>
<defs>
<linearGradient id="paint0_linear_397_2049" x1="-5.72754" y1="5.76496" x2="34.5961" y2="52.121" gradientUnits="userSpaceOnUse">
<stop offset="0.312522" stop-color="#EB7678"/>
<stop offset="0.733173" stop-color="#BF484B"/>
<stop offset="1" stop-color="#9D2F32"/>
</linearGradient>
</defs>
</svg>
