<svg width="58" height="52" viewBox="0 0 58 52" fill="none" xmlns="http://www.w3.org/2000/svg">
<path d="M5.8 39V14.4444H2.9V11.5556H5.8V8.66667H2.9V5.77778H5.8V2.88889H2.9V0H20.3C21.75 0.0866667 23.055 0.693334 24.186 1.82C25.317 2.94667 25.955 4.33333 26.1 5.77778H55.1V8.66667H26.1C25.955 10.1978 25.317 11.5556 24.186 12.7978C23.055 14.04 21.75 14.5889 20.3 14.4444H14.5V34.8111C14.645 34.8111 14.877 34.7822 15.196 34.6667C15.515 34.5511 15.776 34.6667 15.95 34.6667C17.574 34.6667 19.43 35.0711 21.518 35.88C22.707 33.2222 24.737 30.8533 27.637 28.8889C30.537 26.9244 33.437 26 36.337 26C40.774 26 44.544 27.5311 47.618 30.5933C50.692 33.6556 52.2 37.4111 52.2 41.8889V42.6689C52.2 43.0444 52.113 43.2467 52.113 43.3333H3.306C3.683 41.8889 4.495 40.4444 5.8 39ZM11.6 35.3311V14.4444H8.7V36.6889C10.15 35.9667 11.049 35.5333 11.6 35.3311ZM20.3 11.5556V8.66667H14.5V11.5556H20.3ZM20.3 2.88889H14.5V5.77778H20.3V2.88889ZM8.7 2.88889V5.77778H11.6V2.88889H8.7ZM8.7 8.66667V11.5556H11.6V8.66667H8.7ZM0 46.2222H58L52.2 52H5.8L0 46.2222Z" fill="url(#paint0_linear_397_2059)"/>
<defs>
<linearGradient id="paint0_linear_397_2059" x1="58" y1="52.2524" x2="0.200422" y2="-0.220767" gradientUnits="userSpaceOnUse">
<stop stop-color="#FFBE48"/>
<stop offset="0.742623" stop-color="#E8952B"/>
<stop offset="1" stop-color="#E09500"/>
</linearGradient>
</defs>
</svg>
